<svg width="512" height="512" viewBox="0 0 512 512" fill="none" xmlns="http://www.w3.org/2000/svg">
  <rect width="512" height="512" rx="144" fill="#F5EFE7"/>
  <rect x="28" y="28" width="456" height="456" rx="116" stroke="#D8C9B6" stroke-width="12"/>
  <path d="M180 154C180 140.745 190.745 130 204 130H232V382H204C190.745 382 180 371.255 180 358V154Z" fill="#2F261F"/>
  <path d="M282 208C321.765 208 354 240.235 354 280C354 319.765 321.765 352 282 352C242.235 352 210 319.765 210 280H252C252 296.569 265.431 310 282 310C298.569 310 312 296.569 312 280C312 263.431 298.569 250 282 250H264V208H282Z" fill="#9E7C56"/>
</svg>
